ffmpeg version 4.4.2-0ubuntu0.22.04.1 Copyright (c) 2000-2021 the FFmpeg developers
  built with gcc 11 (Ubuntu 11.2.0-19ubuntu1)
  configuration: --prefix=/usr --extra-version=0ubuntu0.22.04.1 --toolchain=hardened --libdir=/usr/lib/x86_64-linux-gnu --incdir=/usr/include/x86_64-linux-gnu --arch=amd64 --enable-gpl --disable-stripping --enable-gnutls --enable-ladspa --enable-libaom --enable-libass --enable-libbluray --enable-libbs2b --enable-libcaca --enable-libcdio --enable-libcodec2 --enable-libdav1d --enable-libflite --enable-libfontconfig --enable-libfreetype --enable-libfribidi --enable-libgme --enable-libgsm --enable-libjack --enable-libmp3lame --enable-libmysofa --enable-libopenjpeg --enable-libopenmpt --enable-libopus --enable-libpulse --enable-librabbitmq --enable-librubberband --enable-libshine --enable-libsnappy --enable-libsoxr --enable-libspeex --enable-libsrt --enable-libssh --enable-libtheora --enable-libtwolame --enable-libvidstab --enable-libvorbis --enable-libvpx --enable-libwebp --enable-libx265 --enable-libxml2 --enable-libxvid --enable-libzimg --enable-libzmq --enable-libzvbi --enable-lv2 --enable-omx --enable-openal --enable-opencl --enable-opengl --enable-sdl2 --enable-pocketsphinx --enable-librsvg --enable-libmfx --enable-libdc1394 --enable-libdrm --enable-libiec61883 --enable-chromaprint --enable-frei0r --enable-libx264 --enable-shared
  libavutil      56. 70.100 / 56. 70.100
  libavcodec     58.134.100 / 58.134.100
  libavformat    58. 76.100 / 58. 76.100
  libavdevice    58. 13.100 / 58. 13.100
  libavfilter     7.110.100 /  7.110.100
  libswscale      5.  9.100 /  5.  9.100
  libswresample   3.  9.100 /  3.  9.100
  libpostproc    55.  9.100 / 55.  9.100
Input #0, image2, from '/tmp/jl_y9ILVA/proc1_%04d.png':
  Duration: 00:00:04.52, start: 0.000000, bitrate: N/A
  Stream #0:0: Video: png, rgb24(pc), 1200x600, 25 fps, 25 tbr, 25 tbn, 25 tbc
Stream mapping:
  Stream #0:0 -> #0:0 (png (native) -> h264 (libx264))
Press [q] to stop, [?] for help
[libx264 @ 0x5611a40f0700] using cpu capabilities: MMX2 SSE2Fast SSSE3 SSE4.2 AVX FMA3 BMI2 AVX2
[libx264 @ 0x5611a40f0700] profile High, level 3.1, 4:2:0, 8-bit
[libx264 @ 0x5611a40f0700] 264 - core 163 r3060 5db6aa6 - H.264/MPEG-4 AVC codec - Copyleft 2003-2021 - http://www.videolan.org/x264.html - options: cabac=1 ref=3 deblock=1:0:0 analyse=0x3:0x113 me=hex subme=7 psy=1 psy_rd=1.00:0.00 mixed_ref=1 me_range=16 chroma_me=1 trellis=1 8x8dct=1 cqm=0 deadzone=21,11 fast_pskip=1 chroma_qp_offset=-2 threads=3 lookahead_threads=1 sliced_threads=0 nr=0 decimate=1 interlaced=0 bluray_compat=0 constrained_intra=0 bframes=3 b_pyramid=2 b_adapt=1 b_bias=0 direct=1 weightb=1 open_gop=0 weightp=2 keyint=250 keyint_min=25 scenecut=40 intra_refresh=0 rc_lookahead=40 rc=crf mbtree=1 crf=23.0 qcomp=0.60 qpmin=0 qpmax=69 qpstep=4 ip_ratio=1.40 aq=1:1.00
Output #0, mp4, to 'vorticity_proc1.mp4':
  Metadata:
    encoder         : Lavf58.76.100
  Stream #0:0: Video: h264 (avc1 / 0x31637661), yuv420p(tv, progressive), 1200x600, q=2-31, 25 fps, 12800 tbn
    Metadata:
      encoder         : Lavc58.134.100 libx264
    Side data:
      cpb: bitrate max/min/avg: 0/0/0 buffer size: 0 vbv_delay: N/A
frame=    3 fps=0.0 q=0.0 size=       0kB time=00:00:00.00 bitrate=N/A speed=   0x    frame=   35 fps=0.0 q=0.0 size=       0kB time=00:00:00.00 bitrate=N/A speed=   0x    frame=   55 fps= 48 q=28.0 size=       0kB time=00:00:00.20 bitrate=   1.9kbits/s speed=0.176x    frame=   73 fps= 44 q=28.0 size=       0kB time=00:00:00.92 bitrate=   0.4kbits/s speed=0.549x    frame=   88 fps= 40 q=28.0 size=       0kB time=00:00:01.52 bitrate=   0.3kbits/s speed=0.688x    frame=  103 fps= 36 q=28.0 size=       0kB time=00:00:02.12 bitrate=   0.2kbits/s speed=0.747x    frame=  118 fps= 34 q=28.0 size=       0kB time=00:00:02.72 bitrate=   0.1kbits/s speed=0.795x    frame=  133 fps= 34 q=28.0 size=     256kB time=00:00:03.32 bitrate= 631.8kbits/s speed=0.837x    frame=  150 fps= 33 q=28.0 size=     256kB time=00:00:04.00 bitrate= 524.4kbits/s speed=0.881x    frame=  165 fps= 32 q=28.0 size=     256kB time=00:00:04.60 bitrate= 456.0kbits/s speed=0.905x    frame=  180 fps= 32 q=28.0 size=     256kB time=00:00:05.20 bitrate= 403.4kbits/s speed=0.928x    frame=  195 fps= 32 q=28.0 size=     256kB time=00:00:05.80 bitrate= 361.6kbits/s speed=0.944x    frame=  210 fps= 32 q=28.0 size=     256kB time=00:00:06.40 bitrate= 327.7kbits/s speed=0.961x    frame=  225 fps= 31 q=28.0 size=     256kB time=00:00:07.00 bitrate= 299.6kbits/s speed=0.971x    frame=  243 fps= 31 q=28.0 size=     512kB time=00:00:07.72 bitrate= 543.3kbits/s speed=0.997x    frame=  255 fps= 31 q=28.0 size=     512kB time=00:00:08.20 bitrate= 511.5kbits/s speed=0.995x    frame=  273 fps= 31 q=28.0 size=     512kB time=00:00:08.92 bitrate= 470.3kbits/s speed=1.02x    frame=  283 fps= 28 q=-1.0 Lsize=     820kB time=00:00:11.20 bitrate= 599.7kbits/s speed=1.12x    
video:816kB audio:0kB subtitle:0kB other streams:0kB global headers:0kB muxing overhead: 0.507219%
[libx264 @ 0x5611a40f0700] frame I:2     Avg QP:16.95  size: 37480
[libx264 @ 0x5611a40f0700] frame P:74    Avg QP:25.18  size:  8146
[libx264 @ 0x5611a40f0700] frame B:207   Avg QP:19.36  size:   758
[libx264 @ 0x5611a40f0700] consecutive B-frames:  0.7%  4.2%  3.2% 91.9%
[libx264 @ 0x5611a40f0700] mb I  I16..4: 30.2% 43.6% 26.1%
[libx264 @ 0x5611a40f0700] mb P  I16..4:  0.3%  1.5%  1.0%  P16..4:  5.8%  6.6%  4.5%  0.0%  0.0%    skip:80.3%
[libx264 @ 0x5611a40f0700] mb B  I16..4:  0.1%  0.1%  0.0%  B16..8:  6.4%  0.9%  0.3%  direct: 0.3%  skip:91.9%  L0:44.0% L1:47.5% BI: 8.5%
[libx264 @ 0x5611a40f0700] 8x8 transform intra:47.6% inter:37.8%
[libx264 @ 0x5611a40f0700] coded y,uvDC,uvAC intra: 40.6% 43.3% 34.9% inter: 2.7% 2.2% 0.6%
[libx264 @ 0x5611a40f0700] i16 v,h,dc,p: 66% 21% 10%  3%
[libx264 @ 0x5611a40f0700] i8 v,h,dc,ddl,ddr,vr,hd,vl,hu: 28% 12% 29%  5%  5%  4%  6%  4%  6%
[libx264 @ 0x5611a40f0700] i4 v,h,dc,ddl,ddr,vr,hd,vl,hu: 28% 18% 17%  5%  6%  5%  9%  4%  8%
[libx264 @ 0x5611a40f0700] i8c dc,h,v,p: 68% 15% 13%  5%
[libx264 @ 0x5611a40f0700] Weighted P-Frames: Y:0.0% UV:0.0%
[libx264 @ 0x5611a40f0700] ref P L0: 69.7% 15.3%  9.9%  5.1%
[libx264 @ 0x5611a40f0700] ref B L0: 88.2%  9.2%  2.6%
[libx264 @ 0x5611a40f0700] ref B L1: 98.4%  1.6%
[libx264 @ 0x5611a40f0700] kb/s:589.86
